Coordinates
version=1
nRows=7
nColumns=40
inDegrees=yes

Units are S.I. units (second, meters, Newtons, ...)
Angles are in degrees.

endheader
time	pelvis_tilt	pelvis_list	pelvis_rotation	pelvis_tx	pelvis_ty	pelvis_tz	hip_flexion_r	hip_adduction_r	hip_rotation_r	knee_angle_r	knee_angle_r_beta	ankle_angle_r	subtalar_angle_r	mtp_angle_r	hip_flexion_l	hip_adduction_l	hip_rotation_l	knee_angle_l	knee_angle_l_beta	ankle_angle_l	subtalar_angle_l	mtp_angle_l	lumbar_extension	lumbar_bending	lumbar_rotation	arm_flex_r	arm_add_r	arm_rot_r	elbow_flex_r	pro_sup_r	wrist_flex_r	wrist_dev_r	arm_flex_l	arm_add_l	arm_rot_l	elbow_flex_l	pro_sup_l	wrist_flex_l	wrist_dev_l
      0.00000000	     -4.56028833	      0.61977844	      1.77757642	     -0.82020440	      0.95366679	      1.46691322	      6.26469861	     -2.45720189	    -21.82304686	    -15.44335562	     -0.26953740	      7.64826383	     -1.63334390	     -3.39007183	     27.26903432	      3.17917414	     12.94205814	    -33.36398409	     -0.58231137	      2.66682699	     13.04545929	     -0.22888346	     -3.53177524	     -3.15211836	      6.52663656	     14.81243454	    -16.33723343	    -14.29004071	     25.85065151	     89.95437384	      0.00000000	      0.00000000	     -9.60145922	     17.39232131	     13.64812204	      9.02661336	     89.95437384	      0.00000000	      0.00000000
      0.01000000	     -4.45832358	      0.71169096	      1.67767751	     -0.81238735	      0.95330619	      1.46728533	      5.44782844	     -2.44950972	    -21.84632783	    -15.08908737	     -0.26335426	      7.97223440	     -1.58174979	     -3.82979565	     27.25449431	      3.05601887	     13.13548563	    -30.34625001	     -0.52964198	      2.04526885	     12.66302480	      0.31741704	     -3.58833424	     -3.24065363	      6.72097235	     15.23280971	    -16.43313334	    -13.99841318	     26.38090766	     89.95437384	      0.00000000	      0.00000000	     -9.97797901	     17.27701353	     13.82399563	      8.74752358	     89.95437384	      0.00000000	      0.00000000
      0.02000000	     -4.67746189	      0.41340146	      1.53349233	     -0.80487793	      0.95214392	      1.46785941	      5.15670714	     -2.06020515	    -21.95651625	    -15.01807092	     -0.26211478	      8.21611515	     -1.49379938	     -3.98596521	     27.74653955	      3.38661772	     13.17743600	    -27.63246201	     -0.48227744	      1.65159843	     11.97967560	      0.55661753	     -3.28142471	     -2.90990949	      6.97283367	     15.56015930	    -16.58873986	    -13.64086562	     27.00522985	     89.95437384	      0.00000000	      0.00000000	    -10.45945230	     17.07599327	     13.90210684	      8.69407853	     89.95437384	      0.00000000	      0.00000000
      0.03000000	     -4.11574459	      0.81192290	      1.31475698	     -0.79642335	      0.95230125	      1.46796154	      3.81574523	     -2.48015144	    -22.19061176	    -14.72851578	     -0.25706109	      8.59858347	     -0.95597199	     -4.66096629	     26.97779543	      3.04554524	     13.86795476	    -24.41832775	     -0.42618022	      0.76137300	     10.89782864	      1.13566786	     -3.84564864	     -3.31970942	      7.11061899	     15.93385926	    -16.74938570	    -12.65326619	     27.73736728	     89.95437384	      0.00000000	      0.00000000	    -10.84345587	     16.90792264	     14.24522604	      8.43622984	     89.95437384	      0.00000000	      0.00000000
      0.04000000	     -4.03826427	      0.81250263	      1.17090611	     -0.78845262	      0.95143548	      1.46810077	      3.10299280	     -2.44633975	    -22.32556753	    -14.55509710	     -0.25403437	      8.91212709	     -0.68044938	     -5.28593725	     26.99101215	      3.12908423	     14.33666490	    -21.67324869	     -0.37826955	     -0.09936761	      9.44575951	      1.53702941	     -3.88747139	     -3.32175445	      7.23443682	     16.26415494	    -16.86242406	    -12.17772057	     28.42918164	     89.95437384	      0.00000000	      0.00000000	    -11.30441103	     16.68162775	     14.80079827	      8.38503757	     89.95437384	      0.00000000	      0.00000000
      0.05000000	     -3.86953129	      0.75805922	      0.95543636	     -0.78037740	      0.95060681	      1.46828947	      2.34252298	     -2.40753372	    -22.56755445	    -14.49853871	     -0.25304724	      9.19317830	     -0.22875489	     -5.94592394	     26.93141796	      3.34052872	     14.93660343	    -19.14988008	     -0.33422846	     -0.93767831	      7.58032475	      1.82527676	     -4.03166643	     -3.25517365	      7.38115390	     16.62947371	    -16.94576236	    -11.71034869	     29.07094069	     89.95437384	      0.00000000	      0.00000000	    -11.71716428	     16.41723439	     15.15067095	      8.25483865	     89.95437384	      0.00000000	      0.00000000
      0.06000000	     -3.71613583	      0.70803584	      0.77735667	     -0.77203680	      0.94968308	      1.46829309	      1.51517876	     -2.37164930	    -22.81827667	    -14.32859441	     -0.25008115	      9.52925129	      0.31381807	     -6.64341906	     26.89339209	      3.55189998	     15.58263983	    -16.81852320	     -0.29353861	     -1.76103026	      5.23047287	      2.13285187	     -4.13033896	     -3.19457234	      7.48038771	     16.91163464	    -17.07959078	    -11.03820052	     29.74669624	     89.95437384	      0.00000000	      0.00000000	    -12.13632230	     16.14345585	     15.45747936	      8.11678891	     89.95437384	      0.00000000	      0.00000000
